dummy_motion.mot
nRows=37
nColumns=14

name dummy_motion.mot
datacolumns 14
datarows 37
range 12.5100000000 12.8700000000
endheader
time	first_body_list	first_body_rotation	first_body_tilt	first_body_tx	first_body_ty	first_body_tz	subtalar_angle_r	ankle_angle_r	knee_angle_r	hip_flexion_r	hip_adduction_r	hip_rotation_r	mtp_angle_r
       12.5100000000	        0.0000000000	        0.0000000000	        0.0000000000	        0.0000000000	        0.0000000000	        0.0000000000	        0.0000000000	      -29.4992846292	      -42.0675648337	       28.4245473281	       15.5461885499	      -34.8823108556	        0.0000000000	
       12.5200000000	        0.0000000000	        0.0000000000	        0.0000000000	        0.0000000000	        0.0000000000	        0.0000000000	        0.0000000000	      -52.2896928825	      -73.3407502592	      -23.8446359963	      -10.8354871847	       -5.6969087737	        0.0000000000	
       12.5300000000	        0.0000000000	        0.0000000000	        0.0000000000	        0.0000000000	        0.0000000000	        0.0000000000	        0.0000000000	       28.3846818567	      -33.6264814028	       68.3119961211	      -14.0426963635	       -0.0011447037	        0.0000000000	
       12.5400000000	        0.0000000000	        0.0000000000	        0.0000000000	        0.0000000000	        0.0000000000	        0.0000000000	        0.0000000000	       35.0198358906	      -94.9775884242	      -42.6456839056	        2.2520604672	       -1.2282792005	        0.0000000000	
       12.5500000000	        0.0000000000	        0.0000000000	        0.0000000000	        0.0000000000	        0.0000000000	        0.0000000000	        0.0000000000	       36.2150091868	      -33.9290545173	      118.7622003676	       25.6039242510	       -4.1253377969	        0.0000000000	
       12.5600000000	        0.0000000000	        0.0000000000	        0.0000000000	        0.0000000000	        0.0000000000	        0.0000000000	        0.0000000000	       20.3589254389	        4.2801315075	      -34.8164003776	       -3.4614360273	       28.8707723797	        0.0000000000	
       12.5700000000	        0.0000000000	        0.0000000000	        0.0000000000	        0.0000000000	        0.0000000000	        0.0000000000	        0.0000000000	      -55.1588075035	      -99.8094304134	      -36.8569008454	       15.8832844609	        3.3508548317	        0.0000000000	
       12.5800000000	        0.0000000000	        0.0000000000	        0.0000000000	        0.0000000000	        0.0000000000	        0.0000000000	        0.0000000000	       25.5985032981	      -97.9867944324	       48.8314968281	      -21.2589353953	       10.2673246395	        0.0000000000	
       12.5900000000	        0.0000000000	        0.0000000000	        0.0000000000	        0.0000000000	        0.0000000000	        0.0000000000	        0.0000000000	       36.3303810289	     -117.7651172168	       23.0610581357	      -15.7702844705	      -24.9499345544	        0.0000000000	
       12.6000000000	        0.0000000000	        0.0000000000	        0.0000000000	        0.0000000000	        0.0000000000	        0.0000000000	        0.0000000000	       43.2027537940	        4.7172475654	       81.3526827971	        6.0822207534	       39.0758740234	        0.0000000000	
       12.6100000000	        0.0000000000	        0.0000000000	        0.0000000000	        0.0000000000	        0.0000000000	        0.0000000000	        0.0000000000	      -20.1708078550	      -81.0002370456	      106.3035110418	       17.7453013437	       -1.1811403825	        0.0000000000	
       12.6200000000	        0.0000000000	        0.0000000000	        0.0000000000	        0.0000000000	        0.0000000000	        0.0000000000	        0.0000000000	        3.8294156183	      -41.9005527898	       66.5655329023	       -9.2469816141	      -27.5546901507	        0.0000000000	
       12.6300000000	        0.0000000000	        0.0000000000	        0.0000000000	        0.0000000000	        0.0000000000	        0.0000000000	        0.0000000000	       55.3618798708	      -83.0069295930	       56.9890705268	      -17.8759946453	       13.8719452156	        0.0000000000	
       12.6400000000	        0.0000000000	        0.0000000000	        0.0000000000	        0.0000000000	        0.0000000000	        0.0000000000	        0.0000000000	      -39.9272425929	      -74.4698420639	       30.0540877421	      -18.6845995637	      -28.2249258432	        0.0000000000	
       12.6500000000	        0.0000000000	        0.0000000000	        0.0000000000	        0.0000000000	        0.0000000000	        0.0000000000	        0.0000000000	       41.4370359157	      -11.5096586534	       40.3929602240	      -10.2911600473	      -16.2905754902	        0.0000000000	
       12.6600000000	        0.0000000000	        0.0000000000	        0.0000000000	        0.0000000000	        0.0000000000	        0.0000000000	        0.0000000000	       34.5235780534	       -1.3605005446	       93.0866710297	       -0.2741833272	       -1.8225287350	        0.0000000000	
       12.6700000000	        0.0000000000	        0.0000000000	        0.0000000000	        0.0000000000	        0.0000000000	        0.0000000000	        0.0000000000	       56.8803498239	      -78.8786528824	       29.8226129749	        9.8838635167	      -12.7969109612	        0.0000000000	
       12.6800000000	        0.0000000000	        0.0000000000	        0.0000000000	        0.0000000000	        0.0000000000	        0.0000000000	        0.0000000000	       56.5280795226	      -72.9990716212	      -23.6923769288	      -38.2015103115	       20.5822908898	        0.0000000000	
       12.6900000000	        0.0000000000	        0.0000000000	        0.0000000000	        0.0000000000	        0.0000000000	        0.0000000000	        0.0000000000	      -20.7171724155	     -116.5349405179	        2.6521750291	       27.2544583063	       -8.6982865940	        0.0000000000	
       12.7000000000	        0.0000000000	        0.0000000000	        0.0000000000	        0.0000000000	        0.0000000000	        0.0000000000	        0.0000000000	       47.9840285864	      -39.3439350816	      -17.9364708964	       26.5584847812	       28.5230347130	        0.0000000000	
       12.7100000000	        0.0000000000	        0.0000000000	        0.0000000000	        0.0000000000	        0.0000000000	        0.0000000000	        0.0000000000	       34.2787379525	      -19.5923983546	       83.0396357447	      -39.9193081641	       38.2579432473	        0.0000000000	
       12.7200000000	        0.0000000000	        0.0000000000	        0.0000000000	        0.0000000000	        0.0000000000	        0.0000000000	        0.0000000000	       45.2224364831	      -71.8587968303	       -3.8175529621	       28.2526851038	       25.6993537289	        0.0000000000	
       12.7300000000	        0.0000000000	        0.0000000000	        0.0000000000	        0.0000000000	        0.0000000000	        0.0000000000	        0.0000000000	       36.3561515572	      -58.3569718292	      -12.8497046405	       18.4170070455	       16.4404471443	        0.0000000000	
       12.7400000000	        0.0000000000	        0.0000000000	        0.0000000000	        0.0000000000	        0.0000000000	        0.0000000000	        0.0000000000	        9.0105530429	      -51.4491966231	       97.9932393231	      -23.6616451364	      -14.5958080059	        0.0000000000	
       12.7500000000	        0.0000000000	        0.0000000000	        0.0000000000	        0.0000000000	        0.0000000000	        0.0000000000	        0.0000000000	      -21.0873691613	      -62.2545038261	      110.1239509172	      -15.9995492221	       20.4677995963	        0.0000000000	
       12.7600000000	        0.0000000000	        0.0000000000	        0.0000000000	        0.0000000000	        0.0000000000	        0.0000000000	        0.0000000000	      -11.0984162984	     -101.5125627423	        7.7029958132	       14.0181623604	      -11.1739738822	        0.0000000000	
       12.7700000000	        0.0000000000	        0.0000000000	        0.0000000000	        0.0000000000	        0.0000000000	        0.0000000000	        0.0000000000	       50.8909653762	      -20.8996415413	       90.2363485963	        0.5779932204	      -16.7520930927	        0.0000000000	
       12.7800000000	        0.0000000000	        0.0000000000	        0.0000000000	        0.0000000000	        0.0000000000	        0.0000000000	        0.0000000000	       19.9648033023	      -61.0320264148	      -54.9756663055	       17.0446887169	       -6.6852092055	        0.0000000000	
       12.7900000000	        0.0000000000	        0.0000000000	        0.0000000000	        0.0000000000	        0.0000000000	        0.0000000000	        0.0000000000	       55.7777203286	      -98.2167978676	      -62.5281930817	       36.8725490436	      -21.1437383812	        0.0000000000	
       12.8000000000	        0.0000000000	        0.0000000000	        0.0000000000	        0.0000000000	        0.0000000000	        0.0000000000	        0.0000000000	      -30.3023950394	       -0.4311460718	       11.2234915332	       -6.6362923332	       37.7530358118	        0.0000000000	
       12.8100000000	        0.0000000000	        0.0000000000	        0.0000000000	        0.0000000000	        0.0000000000	        0.0000000000	        0.0000000000	        8.8901127870	     -108.6493176401	       86.2502613087	      -17.4596621156	      -11.1995083030	        0.0000000000	
       12.8200000000	        0.0000000000	        0.0000000000	        0.0000000000	        0.0000000000	        0.0000000000	        0.0000000000	        0.0000000000	       38.4558258318	      -57.3644556629	      -19.7543865530	        7.4783614092	        2.7677968152	        0.0000000000	
       12.8300000000	        0.0000000000	        0.0000000000	        0.0000000000	        0.0000000000	        0.0000000000	        0.0000000000	        0.0000000000	      -20.5256245057	      -34.0716169147	      -20.2086855719	      -25.3077584611	      -20.0664725156	        0.0000000000	
       12.8400000000	        0.0000000000	        0.0000000000	        0.0000000000	        0.0000000000	        0.0000000000	        0.0000000000	        0.0000000000	      -55.0948846631	       -2.0521755389	      111.2656135930	       -8.4508237352	      -17.8726752693	        0.0000000000	
       12.8500000000	        0.0000000000	        0.0000000000	        0.0000000000	        0.0000000000	        0.0000000000	        0.0000000000	        0.0000000000	        1.7986881348	      -96.1773542543	       47.2508131869	      -15.0301675661	      -34.4003408173	        0.0000000000	
       12.8600000000	        0.0000000000	        0.0000000000	        0.0000000000	        0.0000000000	        0.0000000000	        0.0000000000	        0.0000000000	       -5.1488347362	      -55.0093570275	       87.9719454586	      -26.9512813915	       -6.4611067224	        0.0000000000	
       12.8700000000	        0.0000000000	        0.0000000000	        0.0000000000	        0.0000000000	        0.0000000000	        0.0000000000	        0.0000000000	       21.9978127985	     -100.1722305102	      -40.1543915619	       -4.8546249430	       15.4519429100	        0.0000000000	
